<?xml version="1.0" encoding="UTF-8" standalone="no"?>
<!-- Created with Inkscape (http://www.inkscape.org/) -->

<svg
   width="256"
   height="256"
   viewBox="0 0 256 256"
   version="1.1"
   id="svg1"
   inkscape:version="1.3.2 (091e20ef0f, 2023-11-25)"
   sodipodi:docname="drawing.svg"
   inkscape:export-filename="drawing.png"
   inkscape:export-xdpi="48"
   inkscape:export-ydpi="48"
   xmlns:inkscape="http://www.inkscape.org/namespaces/inkscape"
   xmlns:sodipodi="http://sodipodi.sourceforge.net/DTD/sodipodi-0.dtd"
   xmlns="http://www.w3.org/2000/svg"
   xmlns:svg="http://www.w3.org/2000/svg">
  <sodipodi:namedview
     id="namedview1"
     pagecolor="#ffffff"
     bordercolor="#000000"
     borderopacity="0.25"
     inkscape:showpageshadow="2"
     inkscape:pageopacity="0.0"
     inkscape:pagecheckerboard="0"
     inkscape:deskcolor="#d1d1d1"
     inkscape:document-units="px"
     inkscape:zoom="3.1054687"
     inkscape:cx="154.24403"
     inkscape:cy="100.30692"
     inkscape:window-width="1920"
     inkscape:window-height="999"
     inkscape:window-x="0"
     inkscape:window-y="0"
     inkscape:window-maximized="1"
     inkscape:current-layer="layer1" />
  <defs
     id="defs1" />
  <g
     inkscape:label="Layer 1"
     inkscape:groupmode="layer"
     id="layer1">
    <path
       d="m 99.443728,256.55472 -6.401767,-40.3311 q -6.081669,-2.2406 -12.80352,-6.08168 -6.721849,-3.84105 -11.843259,-8.00219 L 30.624793,219.42449 0.85660395,166.93007 35.426114,141.64311 q -0.640176,-2.8808 -0.800221,-6.56181 -0.160043,-3.681 -0.160043,-6.56181 0,-2.88078 0.160043,-6.5618 0.160045,-3.68101 0.800221,-6.5618 L 0.85660395,90.10893 30.624793,37.614491 68.395182,54.899245 q 5.12141,-4.161144 11.843259,-8.002202 6.721851,-3.841055 12.80352,-5.761585 L 99.443728,0.48427664 H 158.33993 L 164.74169,40.81537 q 6.08166,2.240618 12.96357,5.92163 6.88189,3.681012 11.68321,8.162245 l 37.77039,-17.284754 29.76819,52.494439 -34.56951,24.64677 q 0.64017,3.2009 0.80021,6.88191 0.16005,3.68102 0.16005,6.88188 0,3.20088 -0.16005,6.72185 -0.16004,3.52097 -0.80021,6.72186 l 34.56951,24.96687 -29.76819,52.49442 -37.77039,-17.28474 q -5.1214,4.16114 -11.68321,8.16224 -6.56181,4.00111 -12.96357,5.92163 l -6.40176,40.3311 z m 29.448112,-86.42378 q 17.28474,0 29.44809,-12.16335 12.16334,-12.16333 12.16334,-29.4481 0,-17.28474 -12.16334,-29.448094 -12.16335,-12.163346 -29.44809,-12.163346 -17.28478,0 -29.448112,12.163346 -12.163349,12.163354 -12.163349,29.448094 0,17.28477 12.163349,29.4481 12.163332,12.16335 29.448112,12.16335 z"
       id="path1"
       style="fill:#4d4d4d;stroke-width:0.320088" />
    <ellipse
       style="fill:#4d4d4d;stroke:none;stroke-width:27.686;stroke-linecap:round;stroke-linejoin:round"
       id="path2"
       cx="129.12704"
       cy="130.19687"
       rx="43.149689"
       ry="44.219513" />
    <path
       style="fill:#f9f9f9;stroke:#f2f2f2;stroke-width:1.07956"
       d="m 84.555311,189.56991 c -6.606042,-3.44015 -7.596083,-12.57216 -1.926115,-17.76624 1.623965,-1.48766 1.623965,-1.48766 0.223244,-3.28324 -3.936629,-5.04634 -2.986018,-12.20088 2.084647,-15.68958 2.100702,-1.44533 2.100702,-1.44533 1.148215,-2.45919 -3.974132,-4.23028 -3.027308,-12.04925 1.90495,-15.73126 2.13956,-1.59722 2.13956,-1.59722 1.163732,-3.25114 -2.450037,-4.15251 -0.686379,-10.70561 3.716469,-13.80901 2.410377,-1.699 2.315604,-1.32566 1.129013,-4.44763 -2.473219,-6.50709 0.943741,-13.690744 7.118514,-14.965602 1.25536,-0.259183 1.25536,-0.259183 0.258,-2.172635 -5.482665,-10.518747 7.3464,-21.573694 17.04298,-14.686105 8.48982,6.030412 9.82027,6.7986 9.82027,5.670123 0,-7.839494 9.44234,-10.308313 16.04523,-4.195221 3.39742,3.145416 3.45624,3.146968 3.85918,0.101756 1.66966,-12.618134 19.40537,-12.838786 17.98346,-0.223733 -0.22711,2.015191 -0.22711,2.015191 4.07062,-2.254701 7.2966,-7.249295 11.99439,-8.227369 16.52479,-3.440425 4.1046,4.337039 3.47537,8.632749 -2.07313,14.152987 -3.39174,3.374476 -3.39174,3.374476 -0.46904,3.398272 5.14655,0.0419 8.58146,1.91372 10.24919,5.585214 2.62437,5.77754 -1.77251,12.39644 -8.26454,12.44114 -5.92493,0.0407 -6.18868,0.98093 -1.2156,4.33273 7.61455,5.13212 7.13257,15.80618 -0.80396,17.80463 -2.3672,0.59605 -2.58246,0.28642 4.25177,6.11647 9.96765,8.50309 2.30503,23.38305 -9.8749,19.17603 -2.48329,-0.85775 -2.48329,-0.85775 -3.1073,0.63571 -1.91047,4.57241 -6.13919,7.0784 -11.28731,6.68905 -3.41806,-0.25852 -3.41806,-0.25852 -3.69875,1.49692 -1.1334,7.08781 -9.82997,10.57935 -16.76507,6.7309 -0.15841,-0.088 -0.85779,1.00478 -1.55417,2.42815 -3.56521,7.28698 -12.04019,8.47527 -18.70582,2.62276 -1.7984,-1.57901 -1.83526,-1.56357 -2.39519,1.00278 -1.4543,6.66555 -9.80141,9.18169 -17.39378,5.24316 -3.752278,-1.94648 -3.752278,-1.94648 -6.097451,0.48877 -3.718721,3.86154 -8.337898,4.66627 -12.962148,2.25816 z m 9.315018,-0.90374 c 0.831741,-0.38261 2.414733,-1.72479 3.517765,-2.98269 2.413957,-2.75284 1.921824,-2.71406 5.833836,-0.45975 7.44233,4.2887 15.47689,2.2625 16.79016,-4.23421 0.78406,-3.87878 0.92407,-3.94273 3.72298,-1.70104 4.36683,3.49744 6.97371,4.35229 10.78177,3.53561 2.93962,-0.63043 6.35315,-3.85387 7.23893,-6.8358 0.58005,-1.9527 1.92307,-2.72506 2.66134,-1.53052 2.67735,4.33206 13.68079,0.11536 14.59352,-5.5925 0.51034,-3.19155 1.0474,-3.58414 3.99925,-2.92356 4.73172,1.05893 9.45991,-1.49381 11.36353,-6.13511 0.81629,-1.99027 1.78884,-2.22592 4.14912,-1.00537 11.99865,6.20475 18.09741,-11.11639 6.76838,-19.22288 -1.583,-1.13274 -3.56929,-2.82269 -4.41393,-3.75546 -0.84466,-0.93277 -1.85194,-1.69594 -2.23841,-1.69594 -0.38646,0 -1.59495,-0.80876 -2.68557,-1.79726 -1.09061,-0.98847 -2.95274,-2.45356 -4.13808,-3.2557 -1.18533,-0.80216 -2.84234,-2.26235 -3.68226,-3.24487 -1.82606,-2.13613 -5.9216,-5.69326 -11.04782,-9.59546 -4.83958,-3.68402 -8.62711,-6.88529 -12.4294,-10.50554 -1.67681,-1.59651 -5.10298,-4.42229 -7.61373,-6.279484 -4.8434,-3.582643 -7.08655,-5.920741 -7.94084,-8.276925 -0.35791,-0.987123 -1.58194,-2.162651 -3.85889,-3.705992 -1.8341,-1.243165 -4.39006,-3.040799 -5.67989,-3.994744 -5.61573,-4.153287 -9.66975,-4.334923 -14.18439,-0.635514 -3.91544,3.208404 -5.13942,8.238386 -3.00238,12.338378 1.44658,2.775314 1.32416,3.611268 -0.58117,3.968711 -5.823631,1.09252 -9.086,8.12086 -6.491746,13.98559 1.207595,2.72996 0.955676,3.73596 -1.311198,5.23611 -4.37962,2.89829 -6.006188,8.24423 -3.797629,12.48145 1.299768,2.49365 1.252203,3.12121 -0.297928,3.9309 -5.849553,3.05538 -6.751412,9.21501 -2.317382,15.82757 0.827174,1.23357 0.827174,1.23357 -1.515269,2.91644 -5.012602,3.60119 -5.936165,9.82355 -2.119839,14.28207 2.048377,2.39306 2.051843,2.36671 -0.677562,5.15415 -7.972702,8.14228 0.326988,20.43703 10.604732,15.70934 z m 91.121121,-55.71131 c 5.71584,-2.95576 5.24068,-10.74305 -0.91403,-14.9797 -6.31808,-4.34909 -6.51892,-5.47979 -1.12143,-6.3136 7.44879,-1.15067 9.37019,-2.2598 10.51095,-6.06732 1.23112,-4.10911 -1.1663,-7.870111 -5.89253,-9.244069 -2.57975,-0.749952 -3.99652,-0.742179 -7.62413,0.04183 -2.4979,0.539854 -1.8914,-0.575206 2.96358,-5.448453 5.82451,-5.846452 6.62586,-9.066022 3.17145,-12.741834 -4.28559,-4.560256 -8.09383,-3.585674 -15.718,4.022451 -6.06061,6.047876 -6.06398,6.04862 -5.69447,1.256792 0.94012,-12.191298 -12.86912,-12.547574 -15.20205,-0.39221 -1.00622,5.242635 -1.09121,5.254742 -5.95376,0.84811 -4.82419,-4.371875 -9.00899,-4.675983 -12.19773,-0.886402 -3.98611,4.73723 -1.855,9.419519 7.42414,16.311508 2.3487,1.744477 5.11463,3.973457 6.14651,4.953267 4.07997,3.87415 8.66371,7.76612 13.25105,11.25127 2.64463,2.00922 7.08653,5.79365 9.8709,8.40985 9.59461,9.01512 13.2109,10.92736 16.97955,8.97852 z m -4.22037,-37.992287 c 0,-0.128985 -0.10553,-0.234518 -0.23451,-0.234518 -0.12899,0 -0.23452,0.105544 -0.23452,0.234518 0,0.128985 0.10553,0.234517 0.23452,0.234517 0.12899,0 0.23451,-0.105532 0.23451,-0.234517 z"
       id="path3" />
  </g>
</svg>
